<svg width="512" height="512" viewBox="0 0 512 512" fill="none" xmlns="http://www.w3.org/2000/svg">
<path d="M352 200V440C351.968 450.599 347.744 460.755 340.249 468.249C332.755 475.744 322.599 479.968 312 480H136C125.401 479.968 115.245 475.744 107.751 468.249C100.256 460.755 96.0317 450.599 96 440V224" stroke="white" stroke-width="32" stroke-linecap="round" stroke-linejoin="round"/>
<path d="M352 224H392C406.839 224.042 421.058 229.956 431.551 240.449C442.044 250.942 447.958 265.161 448 280V360C447.958 374.839 442.044 389.058 431.551 399.551C421.058 410.044 406.839 415.958 392 416H352" stroke="white" stroke-width="32" stroke-miterlimit="10" stroke-linecap="round"/>
<path d="M224 256V416" stroke="white" stroke-width="32" stroke-linecap="round" stroke-linejoin="round"/>
<path d="M288 256V416" stroke="white" stroke-width="32" stroke-linecap="round" stroke-linejoin="round"/>
<path d="M160 256V416" stroke="white" stroke-width="32" stroke-linecap="round" stroke-linejoin="round"/>
<path d="M320 112C332.73 112 344.939 117.057 353.941 126.059C362.943 135.061 368 147.27 368 160C368 172.73 362.943 184.939 353.941 193.941C344.939 202.943 332.73 208 320 208C306.75 208 290.69 200.69 282 192H160C152 214 133 224 112 224C99.2696 224 87.0606 218.943 78.0589 209.941C69.0571 200.939 64 188.73 64 176C64 163.27 69.0571 151.061 78.0589 142.059C87.0606 133.057 99.2696 128 112 128C121.36 128.393 130.4 131.522 138 137" stroke="white" stroke-width="32" stroke-linecap="round" stroke-linejoin="round"/>
<path d="M91.86 132.43C87.9378 128.544 84.8625 123.888 82.8279 118.755C80.7932 113.623 79.8432 108.124 80.0377 102.606C80.2321 97.0883 81.5668 91.6704 83.9577 86.6936C86.3486 81.7168 89.744 77.2889 93.93 73.6886C98.1161 70.0883 103.002 67.3936 108.281 65.7742C113.559 64.1547 119.116 63.6456 124.601 64.2789C130.085 64.9121 135.38 66.6741 140.15 69.4537C144.921 72.2334 149.065 75.9705 152.32 80.43C152.32 80.43 160 91 160 96" stroke="white" stroke-width="32" stroke-miterlimit="10" stroke-linecap="round"/>
<path d="M145.83 64.71C163.22 44.89 187.57 32 216 32C268.38 32 310 74.84 310 127.21C310.003 133.179 309.444 139.136 308.33 145" stroke="white" stroke-width="32" stroke-miterlimit="10" stroke-linecap="round"/>
</svg>
