<svg width="325" height="475" viewBox="0 0 325 475" fill="none" xmlns="http://www.w3.org/2000/svg">
<path d="M72.2222 475H252.778C257.123 475.001 261.322 472.941 264.605 469.198C267.889 465.455 270.036 460.28 270.653 454.622L304.543 142.5H325V95H300.047L268.919 13.1338C267.424 9.18586 265.121 5.86502 262.27 3.54477C259.418 1.22452 256.131 -0.00310176 252.778 5.88552e-06H72.2222C65.3792 5.88552e-06 59.1319 5.08251 56.0625 13.1338L24.9528 95H0V142.5H20.4569L54.3472 454.622C54.9642 460.28 57.1113 465.455 60.3947 469.198C63.678 472.941 67.8774 475.001 72.2222 475ZM260.325 213.75H64.675L56.9292 142.5H268.053L260.325 213.75ZM87.8764 427.5L80.1306 356.25H244.851L237.106 427.5H87.8764ZM83.3806 47.5H241.619L259.675 95H65.325L83.3806 47.5Z" fill="white"/>
</svg>
